<?xml version="1.0" standalone="no"?>
<!DOCTYPE svg PUBLIC "-//W3C//DTD SVG 20010904//EN"
 "http://www.w3.org/TR/2001/REC-SVG-20010904/DTD/svg10.dtd">
<svg version="1.0" xmlns="http://www.w3.org/2000/svg"
 width="96.000000pt" height="96.000000pt" viewBox="0 0 96.000000 96.000000"
 preserveAspectRatio="xMidYMid meet">

<g transform="translate(0.000000,96.000000) scale(0.100000,-0.100000)"
fill="#000000" stroke="none">
<path d="M359 942 c-234 -61 -391 -300 -351 -535 18 -105 60 -187 134 -261
192 -191 483 -192 674 -2 190 190 190 482 0 672 -126 125 -287 170 -457 126z
m231 -457 c38 -118 70 -217 70 -220 0 -4 -21 -5 -47 -3 -45 3 -47 4 -61 46
l-14 43 -61 -3 -60 -3 -11 -40 c-11 -39 -13 -40 -59 -43 -26 -2 -47 -1 -47 1
0 4 124 396 135 425 2 7 21 12 44 12 l40 0 71 -215z"/>
<path d="M460 508 c-7 -29 -15 -59 -17 -65 -4 -9 7 -13 35 -13 l40 0 -15 58
c-8 31 -18 60 -22 65 -4 4 -13 -16 -21 -45z"/>
</g>
</svg>
